Coordinates
version=1
nRows=29
nColumns=24
inDegrees=yes

Units are S.I. units (second, meters, Newtons, ...)
Angles are in degrees.

endheader
time	pelvis_tilt	pelvis_list	pelvis_rotation	pelvis_tx	pelvis_ty	pelvis_tz	hip_flexion_r	hip_adduction_r	hip_rotation_r	knee_angle_r	ankle_angle_r	subtalar_angle_r	mtp_angle_r	hip_flexion_l	hip_adduction_l	hip_rotation_l	knee_angle_l	ankle_angle_l	subtalar_angle_l	mtp_angle_l	lumbar_extension	lumbar_bending	lumbar_rotation
      3.81500000	     -8.12392539	     -9.92597959	     -4.47458455	     -1.56414873	     -0.03223719	      0.49686260	      3.52491716	     16.82805635	     16.79332603	    -16.22849647	      8.41907905	     -0.74430098	     -2.59979429	     40.01293565	    -11.44549313	     -4.06763001	    -51.78106605	     -7.41164951	     10.52313560	     27.89169825	      6.93348165	     11.13656916	      9.81994162
      3.82000000	     -8.20314514	     -9.76887760	     -4.83198231	     -1.55789422	     -0.03239485	      0.49712863	      3.03004505	     16.61512025	     17.05959757	    -16.05049365	      8.51887221	     -0.54138442	     -2.51651725	     40.24051358	    -11.45746572	     -4.52066429	    -50.11013637	     -6.80748983	     11.24656608	     27.60342542	      6.83461135	     11.05037273	     10.28099326
      3.82500000	     -8.30832514	     -9.60867706	     -5.17112268	     -1.55158925	     -0.03261453	      0.49734981	      2.57253225	     16.39216127	     17.30472866	    -15.88142343	      8.62430648	     -0.31735498	     -2.42090587	     40.46570754	    -11.45755787	     -4.96227072	    -48.38170510	     -6.22623173	     12.08303982	     27.35302123	      6.77998131	     10.96149449	     10.70856277
      3.83000000	     -8.43640989	     -9.44746387	     -5.49681162	     -1.54525918	     -0.03289227	      0.49753088	      2.15173144	     16.16252877	     17.53085489	    -15.72488614	      8.73294526	     -0.06589559	     -2.31161505	     40.68541969	    -11.45024259	     -5.39529625	    -46.59743525	     -5.67304853	     13.02151412	     27.15409391	      6.75376590	     10.87532174	     11.09989967
      3.83500000	     -8.56096636	     -9.29029319	     -5.81959450	     -1.53893170	     -0.03323188	      0.49764831	      1.75541321	     15.93344029	     17.71370993	    -15.61409772	      8.85030487	      0.19557675	     -2.18067342	     40.86093117	    -11.42402560	     -5.77928785	    -44.75943263	     -5.03595443	     14.04037333	     26.92779250	      6.71777518	     10.79979688	     11.52021020
      3.84000000	     -8.66282609	     -9.12027012	     -6.09956219	     -1.53253045	     -0.03356769	      0.49768553	      1.33922116	     15.67398724	     17.84075170	    -15.49129926	      8.95468463	      0.48981578	     -1.99348276	     40.98762471	    -11.35033287	     -6.13417248	    -42.91727180	     -4.30471300	     15.18769600	     26.29047563	      6.67398808	     10.70047845	     11.87488125
      3.84500000	     -8.88263709	     -8.97677996	     -6.38935799	     -1.52615186	     -0.03408640	      0.49776027	      1.07109547	     15.46486457	     17.97585705	    -15.41169640	      9.05776308	      0.76247322	     -1.85816368	     41.22081849	    -11.30868136	     -6.42530731	    -40.98309663	     -3.83939046	     16.28696470	     26.31295648	      6.75898017	     10.63768477	     12.17470408
      3.85000000	     -9.05413868	     -8.83093258	     -6.68585007	     -1.51978537	     -0.03459718	      0.49777039	      0.77858567	     15.24144695	     18.06915151	    -15.37747083	      9.18054769	      1.10562589	     -1.66514215	     41.35970755	    -11.24314683	     -6.65104256	    -39.02343434	     -3.27747433	     17.44310226	     26.16314077	      6.77742570	     10.58004839	     12.55575677
      3.85500000	     -9.24260174	     -8.67577629	     -6.95088153	     -1.51334449	     -0.03515236	      0.49773321	      0.51420138	     15.00405650	     18.11414559	    -15.34917414	      9.29306566	      1.46499917	     -1.44974790	     41.49313355	    -11.14027847	     -6.82015015	    -37.04459681	     -2.75643069	     18.58865206	     25.91465831	      6.83342425	     10.50721791	     12.85758708
      3.86000000	     -9.43681058	     -8.52112131	     -7.20497260	     -1.50687844	     -0.03574825	      0.49765954	      0.27377649	     14.76416438	     18.12171031	    -15.34677090	      9.40171536	      1.86027486	     -1.19727685	     41.61017696	    -11.01609075	     -6.90576807	    -35.05886914	     -2.26763586	     19.69716541	     25.58324130	      6.89947447	     10.43497338	     13.14538372
      3.86500000	     -9.64045482	     -8.36148105	     -7.44600892	     -1.50035836	     -0.03638364	      0.49755429	      0.05925567	     14.51731135	     18.09148793	    -15.36742820	      9.50419052	      2.28104564	     -0.91421134	     41.71175331	    -10.86524689	     -6.90424814	    -33.06625711	     -1.82922196	     20.71468402	     25.19669373	      6.98715927	     10.35790531	     13.40510209
      3.87000000	     -9.83919361	     -8.19819413	     -7.68087353	     -1.49381255	     -0.03704236	      0.49742061	     -0.13788628	     14.26195208	     18.01842019	    -15.42237534	      9.60667054	      2.76147172	     -0.57138323	     41.78533839	    -10.69158212	     -6.79376785	    -31.08325285	     -1.44763697	     21.61447254	     24.71625621	      7.07146212	     10.27630529	     13.66155335
      3.87500000	    -10.04334192	     -8.02471742	     -7.90452903	     -1.48719096	     -0.03772742	      0.49726015	     -0.31563707	     13.99322085	     17.91389223	    -15.49822006	      9.69721936	      3.26188215	     -0.19963563	     41.83860598	    -10.48765454	     -6.56910457	    -29.10729929	     -1.15780954	     22.31964659	     24.20187267	      7.17752829	     10.18238630	     13.88947812
      3.88000000	    -10.23819966	     -7.83977903	     -8.12009009	     -1.48052318	     -0.03841228	      0.49708518	     -0.48604801	     13.71025322	     17.79787322	    -15.60239479	      9.76972718	      3.77587648	      0.18304820	     41.85309687	    -10.25517629	     -6.21147572	    -27.13524877	     -0.99504875	     22.78321658	     23.71375025	      7.28461081	     10.07538169	     14.10784013
      3.88500000	    -10.45401623	     -7.63484269	     -8.32750482	     -1.47376726	     -0.03910517	      0.49694007	     -0.63132304	     13.41335102	     17.72353506	    -15.71522509	      9.80914506	      4.24224580	      0.50151057	     41.86906364	    -10.00735216	     -5.77064544	    -25.19402657	     -0.96258387	     23.05387037	     23.28958238	      7.43405486	      9.93814380	     14.29806329
      3.89000000	    -10.60359451	     -7.44047107	     -8.53633172	     -1.46706552	     -0.03975515	      0.49676378	     -0.78897153	     13.10856363	     17.47854803	    -15.91134981	      9.87866590	      4.90911647	      0.98532337	     41.79959322	     -9.75559042	     -5.14781405	    -23.31827253	     -0.95729872	     23.04721374	     22.81289820	      7.49270195	      9.80764095	     14.52015431
      3.89500000	    -10.83352203	     -7.20127217	     -8.75975855	     -1.46025569	     -0.04044236	      0.49669526	     -0.86974608	     12.78270132	     17.39122183	    -16.10446010	      9.88607727	      5.43510395	      1.33873213	     41.81594895	     -9.51370270	     -4.57820808	    -21.54271301	     -1.05086388	     22.91465093	     22.33811338	      7.67537782	      9.62904294	     14.72814142
      3.90000000	    -10.99264943	     -6.99214261	     -8.93012923	     -1.45348950	     -0.04111389	      0.49653648	     -0.96223765	     12.46266065	     17.03304859	    -16.37814204	      9.93147179	      6.19974758	      1.89146574	     41.77726888	     -9.25633937	     -3.79626285	    -19.90171691	     -1.13384375	     22.52739672	     21.78806240	      7.76561106	      9.46038630	     14.87826659
      3.90500000	    -11.21850425	     -6.77091533	     -9.13544881	     -1.44670771	     -0.04183872	      0.49649147	     -0.97246098	     12.15569703	     16.80099973	    -16.68513632	      9.92291564	      6.87461090	      2.37994418	     41.83841799	     -9.05687514	     -3.10167965	    -18.44017035	     -1.22497844	     22.10803674	     21.18653305	      7.93759511	      9.28283313	     15.06101652
      3.91000000	    -11.45441948	     -6.55996691	     -9.32744092	     -1.43986542	     -0.04260219	      0.49645662	     -0.95278486	     11.86157242	     16.53259002	    -17.02839121	      9.89320069	      7.57906195	      2.87265583	     41.94437506	     -8.88487594	     -2.43014693	    -17.17082145	     -1.27698009	     21.64758129	     20.51117982	      8.13315098	      9.10866439	     15.21748524
      3.91500000	    -11.69076757	     -6.36384671	     -9.50853034	     -1.43295923	     -0.04340541	      0.49643015	     -0.91522091	     11.58282829	     16.23404693	    -17.40775658	      9.84040041	      8.31132899	      3.38303919	     42.08541712	     -8.74469044	     -1.80850406	    -16.10031636	     -1.28703891	     21.19936648	     19.80070143	      8.33874443	      8.94201545	     15.35681381
      3.92000000	    -11.95147345	     -6.13414065	     -9.76883656	     -1.42598361	     -0.04421518	      0.49656857	     -0.84160946	     11.29714898	     16.14116366	    -17.83719977	      9.73123493	      8.86985121	      3.71896427	     42.26410816	     -8.67110067	     -1.43578663	    -15.20651044	     -1.28893975	     20.86450733	     19.24744830	      8.58221758	      8.74706334	     15.58284070
      3.92500000	    -12.15155774	     -5.98738831	     -9.87363386	     -1.41881977	     -0.04507932	      0.49639594	     -0.82380394	     11.03577033	     15.65139127	    -18.25129621	      9.64416397	      9.79210981	      4.34391685	     42.43241427	     -8.54350562	     -0.85563417	    -14.54111544	     -1.18894623	     20.45153720	     18.47831995	      8.79236701	      8.61735980	     15.61581881
      3.93000000	    -12.35783498	     -5.81032563	    -10.15023041	     -1.41167679	     -0.04589307	      0.49651503	     -0.79305431	     10.78699947	     15.56177300	    -18.73038375	      9.46607664	     10.40621673	      4.69688727	     42.59731055	     -8.55159048	     -0.63841174	    -14.03148474	     -1.11128373	     20.22716300	     18.05349126	      8.98479904	      8.47682858	     15.87663401
      3.93500000	    -12.53534861	     -5.63819488	    -10.32064503	     -1.40429554	     -0.04676561	      0.49644127	     -0.76897822	     10.50074818	     15.18685945	    -19.23192533	      9.31666432	     11.28119797	      5.23109152	     42.77375591	     -8.48248730	     -0.37731462	    -13.74000203	     -0.97376783	     20.02054974	     17.55272344	      9.20214602	      8.32298303	     15.99773995
      3.94000000	    -12.66110827	     -5.48360124	    -10.50035895	     -1.39677613	     -0.04758729	      0.49636272	     -0.81555324	     10.22248045	     14.90535747	    -19.72220373	      9.07030783	     12.06927863	      5.72555892	     42.90739311	     -8.44291710	     -0.26974055	    -13.62510556	     -0.80571600	     19.93728363	     17.19431065	      9.37245893	      8.18283269	     16.12108589
      3.94500000	    -12.75482395	     -5.32068098	    -10.67430675	     -1.38908498	     -0.04840477	      0.49629678	     -0.89064563	      9.92641935	     14.62432248	    -20.23139159	      8.78368558	     12.84340282	      6.21042322	     43.01647074	     -8.39839576	     -0.26438665	    -13.67750680	     -0.63154001	     19.94071128	     16.96020352	      9.53485261	      8.02090839	     16.25480878
      3.95000000	    -12.80886178	     -5.16239917	    -10.83340131	     -1.38122715	     -0.04920332	      0.49615484	     -1.00429148	      9.61209504	     14.32722155	    -20.74893825	      8.43928372	     13.65955946	      6.73304649	     43.09566123	     -8.34445432	     -0.36095060	    -13.89167986	     -0.46724018	     20.00684190	     16.81329951	      9.67693526	      7.86460087	     16.35234929
      3.95500000	    -12.81587255	     -5.00563375	    -10.93177175	     -1.37314179	     -0.04998977	      0.49591814	     -1.17697807	      9.27386538	     13.95316824	    -21.23016715	      7.95252110	     14.42391777	      7.51020858	     43.14043411	     -8.24281011	     -0.50030293	    -14.26504425	     -0.30417898	     20.11322308	     16.66545410	      9.80556154	      7.69143726	     16.36653232
